<svg id="Layer_1" data-name="Layer 1" xmlns="http://www.w3.org/2000/svg" viewBox="0 0 116.87 35.61"><defs><style>.cls-1{fill:#3253a1;}.cls-2{fill:#fff;}</style></defs><path class="cls-1" d="M19,39.5H135.9V46H19Zm83.79,1.68a1.47,1.47,0,0,0-1.59,1.6,1.45,1.45,0,0,0,1.57,1.57,1.59,1.59,0,1,0,0-3.17Zm24.87,2.06-.07,0c-.21-.25-.41-.49-.61-.75s-.62-.77-.92-1.16a.34.34,0,0,0-.4-.15c-.17,0-.1.2-.1.3,0,.84,0,1.67,0,2.5v.21a.11.11,0,0,0,.1.1c.26.07.39,0,.39-.27V42.48a.4.4,0,0,1,0-.24c.34.36.59.75.89,1.1s.44.56.66.83a.39.39,0,0,0,.43.14c.15-.06.09-.19.09-.29,0-.79,0-1.59,0-2.38v-.3c0-.05,0-.11-.05-.13a.59.59,0,0,0-.37,0c-.11,0-.07.15-.07.23s0,.22,0,.33Zm-99.24,1a.2.2,0,0,0-.06-.16l-.67-.93c-.14-.2-.14-.2.07-.33a.88.88,0,0,0,.43-.87.84.84,0,0,0-.68-.73,5.33,5.33,0,0,0-1.32-.08c-.1,0-.14.05-.14.15s0,.1,0,.15c0,.84,0,1.69,0,2.53,0,.3,0,.3.33.3.16,0,.22,0,.22-.21s0-.52,0-.78.18-.3.37-.18a.54.54,0,0,1,.15.15,5.67,5.67,0,0,1,.45.64.66.66,0,0,0,.81.36Zm86.35,0L114,43.21c-.15-.21-.15-.21.07-.35a.92.92,0,0,0,.41-1,.89.89,0,0,0-.78-.63,6,6,0,0,0-1-.05c-.27,0-.27,0-.27.27,0,.76,0,1.52,0,2.28v.42c0,.1,0,.16.14.15h.12c.28,0,.28,0,.29-.26s0-.5,0-.75,0-.21.22-.2a.25.25,0,0,1,.22.13c.18.25.38.48.54.73a.6.6,0,0,0,.67.35ZM70.89,42.75v1.32c0,.07,0,.16,0,.2s.27,0,.41,0,.1-.12.1-.19v-.91c0-.21,0-.22.23-.22s.68,0,1,0,.23,0,.23.24,0,.58,0,.87c0,.07,0,.16,0,.19a.7.7,0,0,0,.43,0c.13,0,.07-.17.07-.26,0-.86,0-1.71,0-2.56,0,0,0-.1,0-.15s0-.13-.13-.14h-.18c-.24,0-.24,0-.24.24s0,.56,0,.84,0,.24-.23.24-.66,0-1,0-.25,0-.26-.25,0-.59,0-.88-.07-.19-.34-.19-.22.05-.21.21Zm62.72.64h0v-.48c0-.12-.06-.16-.17-.16h-.71c-.14,0-.17.07-.17.19s0,.22.23.23.21,0,.29,0a.54.54,0,0,1-.09.57,1.12,1.12,0,0,1-1.51-.5,1.46,1.46,0,0,1-.07-.85.92.92,0,0,1,.57-.67,1.22,1.22,0,0,1,1.07.06c.26.13.34.12.44,0s.09-.23-.18-.39a1.76,1.76,0,0,0-1.31-.16,1.37,1.37,0,0,0-1,.64,1.73,1.73,0,0,0-.16,1.39,1.61,1.61,0,0,0,.33.6,2,2,0,0,0,2.22.27.31.31,0,0,0,.18-.32C133.6,43.67,133.61,43.53,133.61,43.39Zm-82.85,0h0v-.48c0-.11,0-.17-.16-.17h-.74c-.11,0-.14,0-.15.15s0,.26.25.27h.18a.13.13,0,0,1,.11,0,.48.48,0,0,1-.16.57,1.09,1.09,0,0,1-1.51-.65,1.55,1.55,0,0,1,0-.74.87.87,0,0,1,.55-.64,1.23,1.23,0,0,1,1.12.07c.19.11.3.09.4-.05s.09-.23-.12-.36A1.81,1.81,0,0,0,49,41.27a1.4,1.4,0,0,0-.94.92,2.24,2.24,0,0,0-.07.44,1.55,1.55,0,0,0,.38,1.22,1.94,1.94,0,0,0,2.17.31.36.36,0,0,0,.24-.4C50.75,43.64,50.76,43.52,50.76,43.4Zm58.78-1.07V41.4c0-.07,0-.16-.06-.19a.67.67,0,0,0-.42,0c-.11,0-.07.16-.07.24,0,.56,0,1.12,0,1.69a.71.71,0,0,1-.74.71.69.69,0,0,1-.7-.72c0-.53,0-1.06,0-1.59,0-.36,0-.36-.38-.35-.22,0-.23,0-.23.22,0,.54,0,1.08,0,1.62a1.41,1.41,0,0,0,.19.72,1.29,1.29,0,0,0,1.43.57,1.16,1.16,0,0,0,1-1.12ZM31,42.73v1.39c0,.13,0,.2.19.2h1.67c.11,0,.16,0,.17-.16,0-.28,0-.32-.28-.32s-.66,0-1,0c-.14,0-.21-.05-.21-.19a3.38,3.38,0,0,0,0-.45c0-.15.05-.22.21-.22s.5,0,.74,0,.23,0,.23-.22,0-.24-.21-.25-.25,0-.37,0c-.7,0-.58.13-.59-.62,0-.21,0-.22.22-.22s.68,0,1,0,.23,0,.23-.25,0-.23-.22-.23H31.18c-.22,0-.22,0-.23.22Zm23.47,1.59h.83c.14,0,.2,0,.2-.19s0-.29-.28-.29-.66,0-1,0c-.14,0-.21-.05-.2-.19V43.2c0-.15,0-.22.21-.22H55c.18,0,.19-.1.19-.23s0-.25-.18-.25a2.67,2.67,0,0,1-.4,0c-.7,0-.58.13-.59-.62,0-.21,0-.22.22-.22s.7,0,1,0c.19,0,.2,0,.2-.25s0-.24-.19-.23H53.62c-.14,0-.2.05-.2.19,0,.91,0,1.83,0,2.74,0,.16.08.2.23.2Zm34.63-1.54c0,.44,0,.88,0,1.32,0,.15,0,.22.21.22h1.64c.06,0,.14,0,.16-.06a.53.53,0,0,0,0-.35c0-.1-.14-.07-.21-.07-.34,0-.68,0-1,0-.15,0-.23,0-.22-.21s0-.28,0-.42,0-.22.22-.22.39,0,.59,0c.36,0,.36,0,.36-.25s0-.23-.35-.23h-.61c-.17,0-.22-.06-.21-.21v-.36c0-.27,0-.27.27-.27h1c.07,0,.16,0,.19-.06a.55.55,0,0,0,0-.36c0-.09-.14-.06-.22-.06H89.29c-.24,0-.24,0-.24.23C89,41.88,89.05,42.33,89.05,42.78Zm-22.79-.05v1.39c0,.11,0,.2.16.2h1.66a.14.14,0,0,0,.16-.15c0-.28,0-.33-.3-.33s-.62,0-.93,0c-.14,0-.21-.05-.2-.19a3.38,3.38,0,0,0,0-.45c0-.15,0-.22.21-.22s.47,0,.71,0,.25,0,.25-.22,0-.24-.23-.25-.23,0-.34,0c-.7,0-.59.13-.6-.62,0-.21,0-.22.23-.22s.65,0,1,0,.22,0,.22-.24,0-.24-.21-.24H66.49c-.22,0-.23,0-.23.22Zm-44.94,0v.69c0,.23,0,.46,0,.7s.06.2.2.19h.12c.22,0,.23,0,.23-.23s0-.44,0-.66.06-.22.22-.2a2.51,2.51,0,0,0,.55-.06.94.94,0,0,0,.85-.74,1,1,0,0,0-.78-1.19,6.55,6.55,0,0,0-1.17-.05c-.21,0-.22,0-.22.23Zm41,.71c-.12-.07-.11-.18-.15-.27l-.69-1.7a.39.39,0,0,0-.44-.29c-.25,0-.26,0-.16.26.37.89.74,1.78,1.1,2.67.07.17.16.2.33.2s.26,0,.33-.19c.28-.72.59-1.43.88-2.14l.28-.64c0-.06,0-.12,0-.15a.46.46,0,0,0-.6.25c-.19.48-.38.95-.58,1.43A2.09,2.09,0,0,1,62.28,43.45Zm18.77-2.27a1.59,1.59,0,0,0-.83.2A1.69,1.69,0,0,0,80,44a1.51,1.51,0,0,0,.88.37A1.53,1.53,0,0,0,82,44a.18.18,0,0,0,0-.28.23.23,0,0,0-.32-.1l-.18.11a1,1,0,0,1-1.42-.42,1.5,1.5,0,0,1-.09-.84,1,1,0,0,1,1.45-.68,1.11,1.11,0,0,0,.19.09c.15.06.24,0,.35-.15s0-.19-.1-.26A1.36,1.36,0,0,0,81.05,41.18Zm36.5,1.54a1,1,0,0,1,.75-1,1.08,1.08,0,0,1,.82.13.28.28,0,0,0,.44-.1c.08-.12,0-.17-.17-.32a1.58,1.58,0,0,0-2.32.78,2.18,2.18,0,0,0-.06.88,1.3,1.3,0,0,0,.46.92,1.64,1.64,0,0,0,1.89.14,2.05,2.05,0,0,0,.23-.2c.08-.06.06-.13,0-.2s-.21-.17-.42,0a1.07,1.07,0,0,1-1.21,0A1.05,1.05,0,0,1,117.55,42.72ZM36.48,41.18a1,1,0,0,0-.8.32.83.83,0,0,0,.4,1.38,5.05,5.05,0,0,1,.55.18c.15.07.3.17.3.36a.47.47,0,0,1-.3.42.69.69,0,0,1-.45,0,1.51,1.51,0,0,1-.44-.22.2.2,0,0,0-.29.06c-.14.16-.13.26.06.39a1.51,1.51,0,0,0,1.29.2.94.94,0,0,0,.63-.78.79.79,0,0,0-.51-.92l-.26-.09-.38-.13c-.22-.09-.3-.22-.27-.41s.18-.28.4-.3a1,1,0,0,1,.56.14c.17.08.25.06.33-.08s.08-.21-.07-.33A1.19,1.19,0,0,0,36.48,41.18Zm61.38,0a1,1,0,0,0-.88.36.84.84,0,0,0,.26,1.26,1.55,1.55,0,0,0,.52.19.93.93,0,0,1,.31.13.33.33,0,0,1,.17.38.55.55,0,0,1-.75.35,2.25,2.25,0,0,1-.38-.19c-.16-.09-.25-.07-.36.09s-.07.21.08.33a1.49,1.49,0,0,0,.71.26,1,1,0,0,0,1.25-1,.73.73,0,0,0-.35-.66,2.52,2.52,0,0,0-.59-.24,1.12,1.12,0,0,1-.41-.2.29.29,0,0,1,0-.45.43.43,0,0,1,.3-.14.94.94,0,0,1,.59.13c.15.11.25.06.35-.1s.08-.21-.09-.31A1.21,1.21,0,0,0,97.86,41.18ZM40.71,43h0v1.11c0,.12,0,.19.17.19H41c.27,0,.28,0,.28-.26v-2.2c0-.14.05-.2.2-.19s.39,0,.58,0,.21-.08.21-.22,0-.26-.19-.26H39.9c-.2,0-.18.12-.18.24s0,.25.18.24.4,0,.59,0,.22,0,.22.21C40.7,42.26,40.71,42.64,40.71,43Zm44-.29v1.38c0,.16,0,.21.21.21h1.42c.21,0,.22,0,.22-.24s0-.24-.21-.24-.53,0-.8,0-.29,0-.29-.29V41.48c0-.29,0-.3-.32-.29s-.23,0-.23.24Zm-7.85,0c0-.44,0-.88,0-1.32,0-.08,0-.19-.06-.22a.61.61,0,0,0-.42,0c-.11,0-.07.18-.07.27V44c0,.29,0,.29.29.29s.26,0,.26-.25C76.88,43.63,76.87,43.19,76.87,42.75Zm-31.54,0V41.43c0-.08,0-.19-.06-.22a.67.67,0,0,0-.42,0c-.12,0-.07.18-.07.27V44c0,.32,0,.33.32.32s.23,0,.23-.22C45.34,43.65,45.33,43.2,45.33,42.75Zm77.42,0V41.43c0-.08,0-.19-.06-.22a.61.61,0,0,0-.42,0c-.11,0-.07.16-.07.24v2.61c0,.26,0,.26.28.26s.27,0,.27-.25Z" transform="translate(-19.03 -10.39)"/><path class="cls-2" d="M123,10.4h12.28c.42,0,.37-.05.37.34v4.94c0,.12-.06.16-.17.15H111.11a1.26,1.26,0,0,0-1.27,1.23q0,1.1,0,2.19a1.27,1.27,0,0,0,1.22,1.22c.12,0,.25,0,.37,0,5.77,0,11.54,0,17.31,0a6.93,6.93,0,0,1,6.75,5.21,6.62,6.62,0,0,1,.17,1.4c0,.79,0,1.58,0,2.38A6.76,6.76,0,0,1,130,35.83a7.53,7.53,0,0,1-1.35.11h-24c-.42,0-.37.07-.37-.37,0-1.55,0-3.11,0-4.66V30.7c0-.12,0-.17.16-.16h24.17a2,2,0,0,0,.55,0,1.27,1.27,0,0,0,.93-1.12c0-.77,0-1.55,0-2.32a1.25,1.25,0,0,0-1.24-1.16h-.31c-5.77,0-11.54,0-17.31,0a7,7,0,0,1-6.59-4.58,5.82,5.82,0,0,1-.35-2c0-.8,0-1.6,0-2.4a6.91,6.91,0,0,1,7-6.56Z" transform="translate(-19.03 -10.39)"/><path class="cls-2" d="M32.46,10.4H44.62a7,7,0,0,1,4.12,1.24,6.63,6.63,0,0,1,2.87,4.55,5.82,5.82,0,0,1,.07.93v2a6.81,6.81,0,0,1-5.38,6.61,7.57,7.57,0,0,1-1.65.16H25.33c-.49,0-.42-.07-.42.41,0,3.09,0,6.18,0,9.27,0,.42.05.36-.38.36-1.6,0-3.21,0-4.81,0h-.22c-.1,0-.15,0-.15-.13a1.47,1.47,0,0,0,0-.21V10.74c0-.37-.05-.34.35-.34ZM35,20.47h9.72a1.32,1.32,0,0,0,1.41-1.33c0-.66,0-1.32,0-2a1.31,1.31,0,0,0-.36-.91,1.36,1.36,0,0,0-1.07-.42H25.09c-.13,0-.2,0-.19.16a.76.76,0,0,1,0,.15v4c0,.35,0,.32.33.32H35Z" transform="translate(-19.03 -10.39)"/><path class="cls-2" d="M56.8,10.43a.78.78,0,0,1,.33,0H63.4a.54.54,0,0,1,.48.23q6.78,8.9,13.57,17.76c.07.1.15.19.23.29a.65.65,0,0,0,.21-.23q6.75-8.82,13.47-17.64a.89.89,0,0,1,.83-.41c2,0,4,0,6,0a.72.72,0,0,1,.35,0,1,1,0,0,1-.2.3l-6.82,8.93-12.24,16a.6.6,0,0,1-.56.27c-.71,0-1.42,0-2.13,0a.57.57,0,0,1-.51-.24q-4.16-5.46-8.33-10.91-5.34-7-10.67-14Z" transform="translate(-19.03 -10.39)"/><path class="cls-2" d="M102.82,41.18a1.59,1.59,0,1,1,0,3.17,1.45,1.45,0,0,1-1.57-1.57A1.47,1.47,0,0,1,102.82,41.18Zm1,1.62v-.21a.87.87,0,0,0-.58-.84,1,1,0,0,0-1.09.18,1.12,1.12,0,0,0-.3,1.08.89.89,0,0,0,.68.81,1.07,1.07,0,0,0,1.09-.31A1,1,0,0,0,103.8,42.8Z" transform="translate(-19.03 -10.39)"/><path class="cls-2" d="M127.69,43.24V41.77c0-.11,0-.22,0-.33s0-.2.07-.23a.59.59,0,0,1,.37,0c.05,0,.05.08.05.13v.3c0,.79,0,1.59,0,2.38,0,.1.06.23-.09.29a.39.39,0,0,1-.43-.14c-.22-.27-.43-.56-.66-.83s-.55-.74-.89-1.1a.4.4,0,0,0,0,.24V44c0,.26-.13.34-.39.27a.11.11,0,0,1-.1-.1V44c0-.83,0-1.66,0-2.5,0-.1-.07-.26.1-.3a.34.34,0,0,1,.4.15c.3.39.61.78.92,1.16s.4.5.61.75Z" transform="translate(-19.03 -10.39)"/><path class="cls-2" d="M28.45,44.29h0a.66.66,0,0,1-.81-.36,5.67,5.67,0,0,0-.45-.64.54.54,0,0,0-.15-.15c-.19-.12-.37,0-.37.18s0,.52,0,.78-.06.21-.22.21c-.32,0-.33,0-.33-.3,0-.84,0-1.69,0-2.53,0-.05,0-.1,0-.15s0-.15.14-.15a5.33,5.33,0,0,1,1.32.08.84.84,0,0,1,.68.73.88.88,0,0,1-.43.87c-.21.13-.21.13-.07.33l.67.93A.2.2,0,0,1,28.45,44.29ZM27,41.66c-.41,0-.38,0-.38.37v.15c0,.5-.11.45.51.45h.09a.57.57,0,0,0,.44-.55.48.48,0,0,0-.5-.42Z" transform="translate(-19.03 -10.39)"/><path class="cls-2" d="M114.8,44.3l-.22,0a.6.6,0,0,1-.67-.35c-.16-.25-.36-.48-.54-.73a.25.25,0,0,0-.22-.13c-.17,0-.22,0-.22.2s0,.5,0,.75,0,.26-.29.26h-.12c-.11,0-.14-.05-.14-.15v-.42c0-.76,0-1.52,0-2.28,0-.27,0-.27.27-.27a6,6,0,0,1,1,.05.89.89,0,0,1,.78.63.92.92,0,0,1-.41,1c-.22.14-.22.14-.07.35Zm-1.87-2.17c0,.55,0,.55.52.5a.48.48,0,0,0,.47-.52.41.41,0,0,0-.46-.44C112.8,41.65,112.94,41.62,112.93,42.13Z" transform="translate(-19.03 -10.39)"/><path class="cls-2" d="M70.89,42.75V41.4c0-.16.06-.21.21-.21s.33,0,.34.19,0,.58,0,.88,0,.25.26.25.66,0,1,0,.23,0,.23-.24,0-.56,0-.84,0-.24.24-.24h.18c.09,0,.13.05.13.14s0,.1,0,.15c0,.85,0,1.7,0,2.56,0,.09.06.22-.07.26a.7.7,0,0,1-.43,0c-.07,0,0-.12,0-.19,0-.29,0-.58,0-.87s0-.24-.23-.24-.68,0-1,0-.22,0-.23.22v.91c0,.07,0,.18-.1.19s-.29,0-.41,0,0-.13,0-.2Z" transform="translate(-19.03 -10.39)"/><path class="cls-2" d="M133.61,43.39c0,.14,0,.28,0,.42a.31.31,0,0,1-.18.32,2,2,0,0,1-2.22-.27,1.61,1.61,0,0,1-.33-.6,1.73,1.73,0,0,1,.16-1.39,1.37,1.37,0,0,1,1-.64,1.76,1.76,0,0,1,1.31.16c.27.16.29.22.18.39s-.18.17-.44,0a1.22,1.22,0,0,0-1.07-.06.92.92,0,0,0-.57.67,1.46,1.46,0,0,0,.07.85,1.12,1.12,0,0,0,1.51.5.54.54,0,0,0,.09-.57c-.08-.07-.19,0-.29,0s-.23,0-.23-.23,0-.2.17-.19h.71c.11,0,.17,0,.17.16v.48Z" transform="translate(-19.03 -10.39)"/><path class="cls-2" d="M50.76,43.4c0,.12,0,.24,0,.36a.36.36,0,0,1-.24.4,1.94,1.94,0,0,1-2.17-.31A1.55,1.55,0,0,1,48,42.63a2.24,2.24,0,0,1,.07-.44,1.4,1.4,0,0,1,.94-.92,1.81,1.81,0,0,1,1.54.16c.21.13.22.19.12.36s-.21.16-.4.05a1.23,1.23,0,0,0-1.12-.07.87.87,0,0,0-.55.64,1.55,1.55,0,0,0,0,.74,1.09,1.09,0,0,0,1.51.65.48.48,0,0,0,.16-.57.13.13,0,0,0-.11,0H50c-.23,0-.27-.05-.25-.27s0-.15.15-.15h.74c.12,0,.16.06.16.17v.48Z" transform="translate(-19.03 -10.39)"/><path class="cls-2" d="M109.54,42.33v.87a1.16,1.16,0,0,1-1,1.12,1.29,1.29,0,0,1-1.43-.57A1.41,1.41,0,0,1,107,43c0-.54,0-1.08,0-1.62,0-.21,0-.21.23-.22.38,0,.38,0,.38.35,0,.53,0,1.06,0,1.59a.69.69,0,0,0,.7.72.71.71,0,0,0,.74-.71c0-.57,0-1.13,0-1.69,0-.08,0-.2.07-.24a.67.67,0,0,1,.42,0c.08,0,.06.12.06.19Z" transform="translate(-19.03 -10.39)"/><path class="cls-2" d="M31,42.73V41.41c0-.21,0-.22.23-.22h1.58c.21,0,.22,0,.22.23s0,.24-.23.25-.68,0-1,0-.23,0-.22.22c0,.75-.11.61.59.62.12,0,.25,0,.37,0s.21,0,.21.25,0,.22-.23.22-.49,0-.74,0-.21.07-.21.22a3.38,3.38,0,0,1,0,.45c0,.14.07.19.21.19.33,0,.66,0,1,0s.31,0,.28.32c0,.11-.06.16-.17.16H31.14c-.15,0-.19-.07-.19-.2Z" transform="translate(-19.03 -10.39)"/><path class="cls-2" d="M54.42,44.32h-.77c-.15,0-.23,0-.23-.2,0-.91,0-1.83,0-2.74,0-.14.06-.19.2-.19h1.64c.18,0,.19.09.19.23s0,.24-.2.25c-.35,0-.7,0-1,0s-.22,0-.22.22c0,.75-.11.61.59.62a2.67,2.67,0,0,0,.4,0c.19,0,.18.12.18.25s0,.23-.19.23h-.77c-.17,0-.22.07-.21.22v.45c0,.14.06.19.2.19.33,0,.66,0,1,0s.29,0,.28.29-.06.19-.2.19Z" transform="translate(-19.03 -10.39)"/><path class="cls-2" d="M89.05,42.78c0-.45,0-.9,0-1.36,0-.22,0-.23.24-.23h1.54c.08,0,.19,0,.22.06a.55.55,0,0,1,0,.36c0,.07-.12.06-.19.06h-1c-.27,0-.27,0-.27.27v.36c0,.15,0,.22.21.21h.61c.35,0,.35,0,.35.23s0,.25-.36.25c-.2,0-.39,0-.59,0s-.21,0-.22.22,0,.28,0,.42.07.21.22.21c.34,0,.68,0,1,0,.07,0,.18,0,.21.07a.53.53,0,0,1,0,.35c0,.06-.1.06-.16.06H89.25c-.16,0-.21-.07-.21-.22C89.05,43.66,89.05,43.22,89.05,42.78Z" transform="translate(-19.03 -10.39)"/><path class="cls-2" d="M66.26,42.73V41.41c0-.21,0-.22.23-.22H68c.2,0,.21,0,.21.24s0,.23-.22.24-.65,0-1,0-.23,0-.23.22c0,.75-.1.61.6.62.11,0,.22,0,.34,0s.24,0,.23.25,0,.22-.25.22-.47,0-.71,0-.22.07-.21.22a3.38,3.38,0,0,1,0,.45c0,.14.06.19.2.19.31,0,.62,0,.93,0s.33,0,.3.33a.14.14,0,0,1-.16.15H66.42c-.15,0-.16-.09-.16-.2Z" transform="translate(-19.03 -10.39)"/><path class="cls-2" d="M21.32,42.74V41.42c0-.22,0-.23.22-.23a6.55,6.55,0,0,1,1.17.05,1,1,0,0,1,.78,1.19.94.94,0,0,1-.85.74,2.51,2.51,0,0,1-.55.06c-.16,0-.22.05-.22.2s0,.44,0,.66,0,.22-.23.23h-.12c-.14,0-.2,0-.2-.19s0-.47,0-.7Zm.95-1.08h-.15c-.24,0-.24,0-.25.24v.36c0,.55-.1.5.54.49a.55.55,0,1,0,0-1.09Z" transform="translate(-19.03 -10.39)"/><path class="cls-2" d="M62.28,43.45a2.09,2.09,0,0,0,.26-.57c.2-.48.39-1,.58-1.43a.46.46,0,0,1,.6-.25c.07,0,.06.09,0,.15l-.28.64c-.29.71-.6,1.42-.88,2.14-.07.17-.18.19-.33.19s-.26,0-.33-.2c-.36-.89-.73-1.78-1.1-2.67-.1-.24-.09-.25.16-.26a.39.39,0,0,1,.44.29l.69,1.7C62.17,43.27,62.16,43.38,62.28,43.45Z" transform="translate(-19.03 -10.39)"/><path class="cls-2" d="M81.05,41.18a1.36,1.36,0,0,1,.91.29c.08.07.2.11.1.26s-.2.21-.35.15a1.11,1.11,0,0,1-.19-.09,1,1,0,0,0-1.45.68,1.5,1.5,0,0,0,.09.84,1,1,0,0,0,1.42.42l.18-.11a.23.23,0,0,1,.32.1A.18.18,0,0,1,82,44a1.53,1.53,0,0,1-1.2.34A1.51,1.51,0,0,1,80,44a1.69,1.69,0,0,1,.27-2.59A1.59,1.59,0,0,1,81.05,41.18Z" transform="translate(-19.03 -10.39)"/><path class="cls-2" d="M117.55,42.72a1.05,1.05,0,0,0,.41.94,1.07,1.07,0,0,0,1.21,0c.21-.12.28-.11.42,0s.08.14,0,.2a2.05,2.05,0,0,1-.23.2,1.64,1.64,0,0,1-1.89-.14,1.3,1.3,0,0,1-.46-.92,2.18,2.18,0,0,1,.06-.88,1.58,1.58,0,0,1,2.32-.78c.22.15.25.2.17.32a.28.28,0,0,1-.44.1,1.08,1.08,0,0,0-.82-.13A1,1,0,0,0,117.55,42.72Z" transform="translate(-19.03 -10.39)"/><path class="cls-2" d="M36.48,41.18a1.19,1.19,0,0,1,.75.21c.15.12.16.18.07.33s-.16.16-.33.08a1,1,0,0,0-.56-.14c-.22,0-.37.12-.4.3s.05.32.27.41l.38.13.26.09a.79.79,0,0,1,.51.92.94.94,0,0,1-.63.78,1.51,1.51,0,0,1-1.29-.2c-.19-.13-.2-.23-.06-.39a.2.2,0,0,1,.29-.06,1.51,1.51,0,0,0,.44.22.69.69,0,0,0,.45,0,.47.47,0,0,0,.3-.42c0-.19-.15-.29-.3-.36a5.05,5.05,0,0,0-.55-.18.83.83,0,0,1-.4-1.38A1,1,0,0,1,36.48,41.18Z" transform="translate(-19.03 -10.39)"/><path class="cls-2" d="M97.86,41.18a1.21,1.21,0,0,1,.7.2c.17.1.18.17.09.31s-.2.21-.35.1a.94.94,0,0,0-.59-.13.43.43,0,0,0-.3.14.29.29,0,0,0,0,.45,1.12,1.12,0,0,0,.41.2,2.52,2.52,0,0,1,.59.24.73.73,0,0,1,.35.66,1,1,0,0,1-1.25,1,1.49,1.49,0,0,1-.71-.26c-.15-.12-.17-.19-.08-.33s.2-.18.36-.09a2.25,2.25,0,0,0,.38.19.55.55,0,0,0,.75-.35.33.33,0,0,0-.17-.38.93.93,0,0,0-.31-.13,1.55,1.55,0,0,1-.52-.19A.84.84,0,0,1,97,41.54,1,1,0,0,1,97.86,41.18Z" transform="translate(-19.03 -10.39)"/><path class="cls-2" d="M40.71,43c0-.38,0-.76,0-1.14,0-.16-.06-.22-.22-.21s-.39,0-.59,0-.18-.11-.18-.24,0-.24.18-.24h2.16c.18,0,.19,0,.19.26s0,.23-.21.22-.39,0-.58,0-.2,0-.2.19v2.2c0,.26,0,.26-.28.26h-.1c-.13,0-.18-.07-.17-.19V43Z" transform="translate(-19.03 -10.39)"/><path class="cls-2" d="M84.72,42.73v-1.3c0-.23,0-.23.23-.24s.32,0,.32.29v2.07c0,.28,0,.28.29.29s.53,0,.8,0,.21,0,.21.24,0,.23-.22.24H84.93c-.16,0-.22,0-.21-.21Z" transform="translate(-19.03 -10.39)"/><path class="cls-2" d="M76.87,42.75c0,.44,0,.88,0,1.32,0,.24,0,.24-.26.25s-.29,0-.29-.29V41.48c0-.09,0-.22.07-.27a.61.61,0,0,1,.42,0c.09,0,.06.14.06.22C76.88,41.87,76.87,42.31,76.87,42.75Z" transform="translate(-19.03 -10.39)"/><path class="cls-2" d="M45.33,42.75c0,.45,0,.9,0,1.35,0,.21,0,.21-.23.22s-.32,0-.32-.32V41.48c0-.09-.05-.22.07-.27a.67.67,0,0,1,.42,0c.09,0,.06.14.06.22Z" transform="translate(-19.03 -10.39)"/><path class="cls-2" d="M122.75,42.78v1.29c0,.25,0,.25-.27.25s-.28,0-.28-.26V41.45c0-.08,0-.2.07-.24a.61.61,0,0,1,.42,0c.09,0,.06.14.06.22Z" transform="translate(-19.03 -10.39)"/><path class="cls-1" d="M103.8,42.8a1,1,0,0,1-.2.71,1.07,1.07,0,0,1-1.09.31.89.89,0,0,1-.68-.81,1.12,1.12,0,0,1,.3-1.08,1,1,0,0,1,1.09-.18.87.87,0,0,1,.58.84Z" transform="translate(-19.03 -10.39)"/><path class="cls-1" d="M27,41.66h.16a.48.48,0,0,1,.5.42.57.57,0,0,1-.44.55h-.09c-.62,0-.5,0-.51-.45V42C26.63,41.63,26.6,41.66,27,41.66Z" transform="translate(-19.03 -10.39)"/><path class="cls-1" d="M112.93,42.13c0-.51-.13-.48.53-.46a.41.41,0,0,1,.46.44.48.48,0,0,1-.47.52C112.93,42.68,112.93,42.68,112.93,42.13Z" transform="translate(-19.03 -10.39)"/><path class="cls-1" d="M22.27,41.66h.12a.55.55,0,1,1,0,1.09c-.64,0-.52.06-.54-.49V41.9c0-.23,0-.23.25-.24Z" transform="translate(-19.03 -10.39)"/></svg>