<svg id="Layer_1" xmlns="http://www.w3.org/2000/svg" width="166.7" height="212" viewBox="0 0 166.7 212"><style>.st0{fill:#6f6f6e}</style><path class="st0" d="M149.9 8.4C133.4 8 111.3 6.7 87.5 1l-4.1-1-4.1 1c-18 4.5-36.9 6.9-59.6 7.4-.9 0-1.9 0-2.8.1L0 8.8V112c0 31.4 9.5 52.5 31 68.4 7.9 5.9 16.4 10.5 25.5 15.5 5.9 3.2 12 6.6 17.7 10.2l9.2 5.9 9.2-5.9c5.7-3.6 11.8-7 17.7-10.2 9-4.9 17.5-9.6 25.4-15.5 21.4-15.9 30.9-37 30.9-68.4V8.8l-16.7-.4zM20.1 25.7c23.8-.6 44.1-3.1 63.3-8 11.2 2.7 22 4.5 32.6 5.7V70c-.7-.3-1.2-.5-1.7-.7-31.8-14.5-63.5-29-95.3-43.6h1.1zM17.2 45C38.6 54.7 60 64.5 81.4 74.3c.4.2.9.4 1.7.8-.8 0-1.2.1-1.7.1H56.2c-1 0-2.2-.2-3.1-.7-12-5.5-24-10.9-35.9-16.4V45zm0 19.8l21 9.6c.3.2.7.3 1 .8h-22V64.8zm5 77.9c-1-2.5-1.9-5.2-2.6-8.1H39c0 .1.1.2.1.3-.6.3-1.2.6-1.8.8-5 2.4-10.1 4.7-15.1 7zm19 23.9c-3.5-2.6-6.6-5.4-9.3-8.3 16.7-7.7 33.5-15.3 50.2-22.9.9-.4 2-.7 3.1-.7 8.3-.1 16.6 0 24.8 0h2.1c-.9.5-1.4.7-1.9 1-22.8 10.4-45.7 20.9-68.5 31.3-.1-.1-.3-.2-.5-.4zm60.8 14.2c-6.2 3.4-12.5 6.8-18.7 10.8-6.2-3.9-12.5-7.4-18.7-10.8-6-3.3-11.7-6.4-17-9.8 22.2-10.2 44.4-20.3 66.6-30.5.5-.2 1-.4 1.6-.7 0 .6.1 1.2.1 1.7v31.4c-4.3 2.7-9 5.3-13.9 7.9zm47.5-68.7c0 24.1-6 39.5-20.3 51.6v-39.8c0-.4-.1-.8-.1-1.3H17.7c-.3-3.3-.4-6.9-.4-10.6V87.2h111.9V24.7c6.9.5 13.7.8 20.3 1v86.4z"/></svg>